<svg width="243" height="126" viewBox="0 0 243 126" fill="none" xmlns="http://www.w3.org/2000/svg">
<path d="M14.084 125.504C11.444 125.504 9.068 124.952 6.956 123.848C4.868 122.72 3.224 121.16 2.024 119.168C0.824 117.176 0.224 114.92 0.224 112.4C0.224 109.88 0.824 107.624 2.024 105.632C3.224 103.64 4.868 102.092 6.956 100.988C9.068 99.86 11.444 99.296 14.084 99.296C16.388 99.296 18.464 99.704 20.312 100.52C22.16 101.336 23.696 102.512 24.92 104.048L20.384 108.152C18.752 106.184 16.772 105.2 14.444 105.2C13.076 105.2 11.852 105.5 10.772 106.1C9.716 106.7 8.888 107.552 8.288 108.656C7.712 109.736 7.424 110.984 7.424 112.4C7.424 113.816 7.712 115.076 8.288 116.18C8.888 117.26 9.716 118.1 10.772 118.7C11.852 119.3 13.076 119.6 14.444 119.6C16.772 119.6 18.752 118.616 20.384 116.648L24.92 120.752C23.696 122.288 22.16 123.464 20.312 124.28C18.464 125.096 16.388 125.504 14.084 125.504ZM40.8061 125.504C38.1421 125.504 35.7421 124.94 33.6061 123.812C31.4941 122.684 29.8261 121.124 28.6021 119.132C27.4021 117.14 26.8021 114.896 26.8021 112.4C26.8021 109.904 27.4021 107.66 28.6021 105.668C29.8261 103.676 31.4941 102.116 33.6061 100.988C35.7421 99.86 38.1421 99.296 40.8061 99.296C43.4701 99.296 45.8581 99.86 47.9701 100.988C50.1061 102.116 51.7741 103.676 52.9741 105.668C54.1981 107.66 54.8101 109.904 54.8101 112.4C54.8101 114.896 54.1981 117.14 52.9741 119.132C51.7741 121.124 50.1061 122.684 47.9701 123.812C45.8581 124.94 43.4701 125.504 40.8061 125.504ZM40.8061 119.6C42.0781 119.6 43.2301 119.3 44.2621 118.7C45.2941 118.1 46.1101 117.26 46.7101 116.18C47.3101 115.076 47.6101 113.816 47.6101 112.4C47.6101 110.984 47.3101 109.736 46.7101 108.656C46.1101 107.552 45.2941 106.7 44.2621 106.1C43.2301 105.5 42.0781 105.2 40.8061 105.2C39.5341 105.2 38.3821 105.5 37.3501 106.1C36.3181 106.7 35.5021 107.552 34.9021 108.656C34.3021 109.736 34.0021 110.984 34.0021 112.4C34.0021 113.816 34.3021 115.076 34.9021 116.18C35.5021 117.26 36.3181 118.1 37.3501 118.7C38.3821 119.3 39.5341 119.6 40.8061 119.6ZM81.2954 125L81.2234 111.644L74.7434 122.516H71.5754L65.1314 112.004V125H58.5434V99.8H64.4114L73.2674 114.344L81.9074 99.8H87.7754L87.8474 125H81.2954ZM115.643 125L115.571 111.644L109.091 122.516H105.923L99.4791 112.004V125H92.8911V99.8H98.7591L107.615 114.344L116.255 99.8H122.123L122.195 125H115.643ZM138.867 125.504C135.123 125.504 132.207 124.484 130.119 122.444C128.055 120.404 127.023 117.512 127.023 113.768V99.8H134.151V113.552C134.151 117.584 135.747 119.6 138.939 119.6C142.107 119.6 143.691 117.584 143.691 113.552V99.8H150.711V113.768C150.711 117.512 149.667 120.404 147.579 122.444C145.515 124.484 142.611 125.504 138.867 125.504ZM179.516 99.8V125H173.648L162.524 111.572V125H155.54V99.8H161.408L172.532 113.228V99.8H179.516ZM184.543 99.8H191.671V125H184.543V99.8ZM202.107 105.452H194.367V99.8H216.939V105.452H209.235V125H202.107V105.452ZM233.094 115.964V125H225.966V115.856L216.354 99.8H223.878L229.854 109.808L235.83 99.8H242.742L233.094 115.964Z" fill="black" fill-opacity="0.62"/>
<path d="M15.084 81.504C12.444 81.504 10.068 80.952 7.956 79.848C5.868 78.72 4.224 77.16 3.024 75.168C1.824 73.176 1.224 70.92 1.224 68.4C1.224 65.88 1.824 63.624 3.024 61.632C4.224 59.64 5.868 58.092 7.956 56.988C10.068 55.86 12.444 55.296 15.084 55.296C17.388 55.296 19.464 55.704 21.312 56.52C23.16 57.336 24.696 58.512 25.92 60.048L21.384 64.152C19.752 62.184 17.772 61.2 15.444 61.2C14.076 61.2 12.852 61.5 11.772 62.1C10.716 62.7 9.888 63.552 9.288 64.656C8.712 65.736 8.424 66.984 8.424 68.4C8.424 69.816 8.712 71.076 9.288 72.18C9.888 73.26 10.716 74.1 11.772 74.7C12.852 75.3 14.076 75.6 15.444 75.6C17.772 75.6 19.752 74.616 21.384 72.648L25.92 76.752C24.696 78.288 23.16 79.464 21.312 80.28C19.464 81.096 17.388 81.504 15.084 81.504ZM41.8061 81.504C39.1421 81.504 36.7421 80.94 34.6061 79.812C32.4941 78.684 30.8261 77.124 29.6021 75.132C28.4021 73.14 27.8021 70.896 27.8021 68.4C27.8021 65.904 28.4021 63.66 29.6021 61.668C30.8261 59.676 32.4941 58.116 34.6061 56.988C36.7421 55.86 39.1421 55.296 41.8061 55.296C44.4701 55.296 46.8581 55.86 48.9701 56.988C51.1061 58.116 52.7741 59.676 53.9741 61.668C55.1981 63.66 55.8101 65.904 55.8101 68.4C55.8101 70.896 55.1981 73.14 53.9741 75.132C52.7741 77.124 51.1061 78.684 48.9701 79.812C46.8581 80.94 44.4701 81.504 41.8061 81.504ZM41.8061 75.6C43.0781 75.6 44.2301 75.3 45.2621 74.7C46.2941 74.1 47.1101 73.26 47.7101 72.18C48.3101 71.076 48.6101 69.816 48.6101 68.4C48.6101 66.984 48.3101 65.736 47.7101 64.656C47.1101 63.552 46.2941 62.7 45.2621 62.1C44.2301 61.5 43.0781 61.2 41.8061 61.2C40.5341 61.2 39.3821 61.5 38.3501 62.1C37.3181 62.7 36.5021 63.552 35.9021 64.656C35.3021 65.736 35.0021 66.984 35.0021 68.4C35.0021 69.816 35.3021 71.076 35.9021 72.18C36.5021 73.26 37.3181 74.1 38.3501 74.7C39.3821 75.3 40.5341 75.6 41.8061 75.6ZM59.5434 55.8H71.4594C74.2194 55.8 76.6674 56.316 78.8034 57.348C80.9394 58.38 82.5954 59.844 83.7714 61.74C84.9474 63.636 85.5354 65.856 85.5354 68.4C85.5354 70.944 84.9474 73.164 83.7714 75.06C82.5954 76.956 80.9394 78.42 78.8034 79.452C76.6674 80.484 74.2194 81 71.4594 81H59.5434V55.8ZM71.1714 75.312C73.3314 75.312 75.0594 74.7 76.3554 73.476C77.6754 72.252 78.3354 70.56 78.3354 68.4C78.3354 66.24 77.6754 64.548 76.3554 63.324C75.0594 62.1 73.3314 61.488 71.1714 61.488H66.6714V75.312H71.1714ZM109.518 75.492V81H89.2856V55.8H109.05V61.308H96.3416V65.556H107.538V70.884H96.3416V75.492H109.518ZM124.489 74.304H120.601V81H113.473V55.8H124.993C127.273 55.8 129.253 56.184 130.933 56.952C132.613 57.696 133.909 58.776 134.821 60.192C135.733 61.584 136.189 63.228 136.189 65.124C136.189 66.948 135.757 68.544 134.893 69.912C134.053 71.256 132.841 72.312 131.257 73.08L136.693 81H129.061L124.489 74.304ZM128.989 65.124C128.989 63.948 128.617 63.036 127.873 62.388C127.129 61.74 126.025 61.416 124.561 61.416H120.601V68.796H124.561C126.025 68.796 127.129 68.484 127.873 67.86C128.617 67.212 128.989 66.3 128.989 65.124Z" fill="black" fill-opacity="0.62"/>
<path d="M22.142 16.554L8.744 21.3L22.142 26.046V32.178L1.436 24.534V18.066L22.142 10.422V16.554ZM36.8998 0.635997H43.9978L30.1377 40.2H23.0397L36.8998 0.635997ZM65.1674 18.066V24.534L44.4614 32.178V26.046L57.8594 21.3L44.4614 16.554V10.422L65.1674 18.066Z" fill="black" fill-opacity="0.62"/>
</svg>
